<svg width="123" height="54" viewBox="0 0 123 54" fill="none" xmlns="http://www.w3.org/2000/svg">
<path d="M1.04999 7.36999C0.643608 6.92217 0.331871 6.39688 0.133482 5.82563C-0.0649062 5.25439 -0.145858 4.64895 -0.104515 4.04564C-0.0631725 3.44234 0.0996119 2.85361 0.374072 2.31476C0.648532 1.77591 1.02901 1.29806 1.49268 0.909868C1.95636 0.521677 2.49367 0.231149 3.07238 0.055713C3.65109 -0.119723 4.25927 -0.176451 4.86045 -0.111068C5.46162 -0.0456846 6.04339 0.140462 6.57086 0.436206C7.09832 0.731949 7.56061 1.13119 7.92999 1.60999C12.4175 7.05749 17.3987 12.0788 22.81 16.61C35.48 27 48.63 32.25 61.67 32.24C74.71 32.23 87.79 27 100.37 16.49C105.675 12.0011 110.553 7.02984 114.94 1.63999C115.701 0.743103 116.784 0.181455 117.956 0.0763005C119.127 -0.0288542 120.293 0.33092 121.201 1.07795C122.11 1.82498 122.688 2.89933 122.811 4.06906C122.935 5.23879 122.593 6.41006 121.86 7.32999C118.736 11.1344 115.397 14.7569 111.86 18.18L117.77 23.6C118.25 23.9804 118.646 24.4554 118.935 24.9955C119.224 25.5356 119.399 26.1293 119.448 26.7396C119.498 27.35 119.422 27.9641 119.224 28.5438C119.027 29.1235 118.713 29.6565 118.301 30.1096C117.889 30.5628 117.388 30.9264 116.83 31.1781C116.271 31.4297 115.667 31.5639 115.055 31.5724C114.443 31.5808 113.835 31.4634 113.27 31.2273C112.705 30.9912 112.194 30.6416 111.77 30.2L105.18 24.2C100.998 27.6354 96.5015 30.6688 91.75 33.26L95.48 41.26C95.9082 42.327 95.9097 43.5178 95.4843 44.586C95.0588 45.6541 94.239 46.5178 93.1945 46.9983C92.15 47.4788 90.9607 47.5394 89.8728 47.1674C88.7849 46.7954 87.8817 46.0194 87.35 45L83.61 37C77.9858 39.1914 72.0685 40.5393 66.05 41V48.9C65.9956 50.0502 65.5004 51.1354 64.6671 51.9302C63.8338 52.725 62.7265 53.1684 61.575 53.1684C60.4235 53.1684 59.3161 52.725 58.4829 51.9302C57.6496 51.1354 57.1544 50.0502 57.1 48.9V41C51.0962 40.5281 45.1937 39.1805 39.58 37L35.82 45C35.5876 45.5579 35.2448 46.0631 34.8121 46.485C34.3795 46.907 33.8659 47.237 33.3023 47.4553C32.7387 47.6736 32.1368 47.7756 31.5328 47.7551C30.9287 47.7347 30.3351 47.5923 29.7876 47.3364C29.24 47.0805 28.7499 46.7165 28.3468 46.2662C27.9436 45.816 27.6357 45.2888 27.4416 44.7165C27.2475 44.1441 27.1712 43.5384 27.2173 42.9358C27.2635 42.3332 27.431 41.7461 27.71 41.21L31.45 33.21C26.7016 30.6225 22.1996 27.6067 18 24.2L11.45 30.2C11.0257 30.6416 10.5151 30.9912 9.95005 31.2273C9.38498 31.4634 8.77742 31.5808 8.16507 31.5724C7.55272 31.5639 6.94865 31.4297 6.39032 31.1781C5.83199 30.9264 5.33132 30.5628 4.91937 30.1096C4.50742 29.6565 4.19298 29.1235 3.99555 28.5438C3.79813 27.9641 3.72193 27.35 3.77168 26.7396C3.82143 26.1293 3.99608 25.5356 4.28478 24.9955C4.57349 24.4554 4.97009 23.9804 5.44999 23.6L11.28 18.26C7.66502 14.8281 4.24943 11.1922 1.04999 7.36999V7.36999Z" fill="white"/>
</svg>
