<svg width="16" height="13" viewBox="0 0 16 13" fill="none" xmlns="http://www.w3.org/2000/svg">
<path d="M1 6V10C1 11.1046 1.89543 12 3 12H13C14.1046 12 15 11.1046 15 10V6" stroke="white" stroke-linecap="round"/>
<path d="M8.5 1C8.5 0.723858 8.27614 0.5 8 0.5C7.72386 0.5 7.5 0.723858 7.5 1H8.5ZM7.64645 8.35355C7.84171 8.54882 8.15829 8.54882 8.35355 8.35355L11.5355 5.17157C11.7308 4.97631 11.7308 4.65973 11.5355 4.46447C11.3403 4.2692 11.0237 4.2692 10.8284 4.46447L8 7.29289L5.17157 4.46447C4.97631 4.2692 4.65973 4.2692 4.46447 4.46447C4.2692 4.65973 4.2692 4.97631 4.46447 5.17157L7.64645 8.35355ZM7.5 1V8H8.5V1H7.5Z" fill="white"/>
</svg>
