<svg width="14" height="22" viewBox="0 0 14 22" fill="none" xmlns="http://www.w3.org/2000/svg">
<path d="M5 0.5H9C11.4853 0.5 13.5 2.51472 13.5 5V15C13.5 18.5899 10.5899 21.5 7 21.5C3.41015 21.5 0.5 18.5899 0.5 15V5C0.5 2.51472 2.51472 0.5 5 0.5Z" fill="#676767" stroke="white"/>
<path d="M1 5C1 2.79086 2.79086 1 5 1H7V9H1V5Z" fill="#676767"/>
<path d="M7 1H9C11.2091 1 13 2.79086 13 5V9H7V1Z" fill="white"/>
<path d="M7 0V9" stroke="white" stroke-width="0.5" stroke-miterlimit="16"/>
<path d="M14 9H-2.38419e-07" stroke="white" stroke-width="0.5" stroke-miterlimit="16"/>
<rect x="6.1" y="2.1" width="1.8" height="4.8" rx="0.9" fill="#676767" stroke="black" stroke-width="0.2"/>
</svg>
