<svg width="123" height="69" viewBox="0 0 123 69" fill="none" xmlns="http://www.w3.org/2000/svg">
<path fill-rule="evenodd" clip-rule="evenodd" d="M61.44 13.81C66.1388 13.7932 70.6981 15.4062 74.3409 18.3741C77.9838 21.342 80.4849 25.4812 81.4181 30.0864C82.3513 34.6916 81.6588 39.4779 79.4586 43.6298C77.2584 47.7817 73.6867 51.0423 69.352 52.856C65.0173 54.6696 60.1879 54.9242 55.6865 53.5763C51.1852 52.2284 47.2904 49.3614 44.666 45.4638C42.0415 41.5663 40.8496 36.8793 41.2934 32.2015C41.7373 27.5237 43.7893 23.1444 47.1 19.81C48.9769 17.9142 51.2101 16.4082 53.671 15.3785C56.132 14.3488 58.7723 13.8157 61.44 13.81V13.81ZM1.05001 31.31C4.23064 27.4458 7.67915 23.8102 11.37 20.43C25.74 7.35001 42.08 0.360011 59 1.10874e-05C75.92 -0.359989 93.09 5.92001 109.35 19.32C113.81 23.017 118 27.0272 121.89 31.32C122.494 32.0006 122.848 32.867 122.894 33.7761C122.939 34.6851 122.673 35.5825 122.14 36.32C117.813 42.488 112.635 48.0127 106.76 52.73C94.4881 62.6472 79.208 68.0955 63.43 68.18C47.5382 68.1385 32.0591 63.1164 19.17 53.82C12.2749 48.9224 6.11003 43.0707 0.860011 36.44C0.273381 35.7033 -0.0299864 34.7809 0.0048682 33.8398C0.0397228 32.8987 0.410494 32.0013 1.05001 31.31V31.31ZM16.68 26.31C14.0125 28.7338 11.4787 31.301 9.09001 34C13.3969 39.0391 18.3071 43.5295 23.71 47.37C35.2652 55.7188 49.1444 60.2403 63.4 60.3C77.3886 60.2139 90.9326 55.376 101.81 46.58C106.294 42.9822 110.324 38.8518 113.81 34.28C110.82 31.1429 107.648 28.1844 104.31 25.42C89.56 13.26 74.08 7.58001 59.11 7.89001C44.14 8.20001 29.63 14.48 16.68 26.27V26.31ZM56.37 18.52C57.9265 18.52 59.4481 18.9816 60.7423 19.8463C62.0366 20.7111 63.0453 21.9402 63.6409 23.3783C64.2366 24.8163 64.3925 26.3987 64.0888 27.9254C63.7851 29.452 63.0356 30.8543 61.9349 31.9549C60.8343 33.0556 59.432 33.8051 57.9054 34.1088C56.3787 34.4125 54.7963 34.2566 53.3583 33.6609C51.9202 33.0653 50.6911 32.0566 49.8263 30.7624C48.9616 29.4681 48.5 27.9465 48.5 26.39C48.4987 25.3561 48.7014 24.3322 49.0964 23.3767C49.4914 22.4213 50.0711 21.5532 50.8021 20.8221C51.5332 20.0911 52.4013 19.5114 53.3567 19.1164C54.3122 18.7214 55.3361 18.5187 56.37 18.52V18.52Z" fill="white"/>
</svg>
